<?xml version="1.0" encoding="UTF-8"?><svg id="Layer_1" xmlns="http://www.w3.org/2000/svg" xmlns:xlink="http://www.w3.org/1999/xlink" viewBox="0 0 1080 1080"><defs><radialGradient id="radial-gradient" cx="477.09" cy="763" fx="477.09" fy="763" r="393.17" gradientUnits="userSpaceOnUse"><stop offset="0" stop-color="#fff"/><stop offset="1" stop-color="#f3f3f3" stop-opacity="0"/></radialGradient><radialGradient id="radial-gradient-2" cx="802.59" cy="437.49" fx="802.59" fy="437.49" r="434.84" xlink:href="#radial-gradient"/><radialGradient id="radial-gradient-3" cx="360.4" cy="306.99" fx="360.4" fy="306.99" r="405.08" xlink:href="#radial-gradient"/></defs><circle cx="277.54" cy="297.15" r="118.98" fill="#fff" stroke="#20201e" stroke-width="5.78"/><circle cx="855.13" cy="367.6" r="118.98" fill="#fff" stroke="#20201e" stroke-width="5.78"/><circle cx="505.39" cy="832.49" r="118.98" fill="#fff" stroke="#20201e" stroke-width="5.78"/><path d="M477.12,766.04c-3.2,1.37-6.53.89-7.77-1.02-.1-.15-.17-.3-.25-.46l-19.77-37.01-166.41-311.53c27.73-1.22,55.11-12.1,76.69-32.62l109.04,335.92,12.93,39.85s.02.04.03.06l.15.47c.54,2.22-1.42,4.96-4.65,6.33Z" fill="url(#radial-gradient)" stroke="#20201e" stroke-width="1.16"/><path d="M811.72,425.31c-2.78-2.1-6.13-2.43-7.78-.88-.13.12-.24.25-.35.39l-28.09,31.17-236.4,262.41c26.62,7.84,50.59,24.99,66.6,50.1l186.57-299.87,22.13-35.58s.03-.03.04-.05l.26-.42c1.06-2.02-.19-5.15-2.99-7.27Z" fill="url(#radial-gradient-2)" stroke="#20201e" stroke-width="1.16"/><ellipse cx="277.76" cy="295.47" rx="118.81" ry="32.4" transform="translate(-52.65 530.59) rotate(-82.2)" fill="#20201e" opacity=".3"/><ellipse cx="354.22" cy="305.66" rx="86.41" ry="32" transform="translate(3.33 615.15) rotate(-82.2)" fill="#20201e" opacity=".3"/><ellipse cx="199.39" cy="286.27" rx="86.41" ry="32" transform="translate(-111.28 444.98) rotate(-82.2)" fill="#20201e" opacity=".3"/><ellipse cx="316.27" cy="303.08" rx="111.54" ry="32" transform="translate(-26.91 575.33) rotate(-82.2)" fill="#20201e" opacity=".3"/><ellipse cx="234.53" cy="291.08" rx="111.54" ry="32" transform="translate(-85.67 483.96) rotate(-82.2)" fill="#20201e" opacity=".3"/><ellipse cx="381.35" cy="311.18" rx="32.7" ry="13.86" transform="translate(21.32 646.79) rotate(-82.2)" fill="#20201e" opacity=".3"/><ellipse cx="173.49" cy="282.72" rx="32.7" ry="13.86" transform="translate(-130.15 416.26) rotate(-82.2)" fill="#20201e" opacity=".3"/><path d="M349.32,305.92c.42-3.46,2.49-6.1,4.76-6.22.18,0,.35,0,.52.02l41.94,1.38,353,11.65c-12.81,24.62-17.08,53.78-10.09,82.73l-345.44-73.53-40.98-8.73s-.04,0-.07,0l-.49-.1c-2.19-.64-3.58-3.71-3.16-7.19Z" fill="url(#radial-gradient-3)" stroke="#20201e" stroke-width="1.16"/><circle cx="505.39" cy="832.49" r="118.98" fill="#fff" stroke="#20201e" stroke-width="5.78"/><circle cx="414.33" cy="885.45" r="5.95" fill="#20201e"/><circle cx="437.8" cy="884.88" r="5.95" fill="#20201e"/><circle cx="503.93" cy="945.55" r="5.95" fill="#20201e"/><circle cx="531.27" cy="939.01" r="5.95" fill="#20201e"/><circle cx="558.95" cy="928.34" r="5.95" fill="#20201e"/><circle cx="558.95" cy="928.34" r="5.95" fill="#20201e"/><circle cx="579.16" cy="917.28" r="5.95" fill="#20201e"/><circle cx="447.13" cy="799.83" r="5.95" fill="#20201e"/><circle cx="474.47" cy="793.3" r="5.95" fill="#20201e"/><circle cx="502.15" cy="782.62" r="5.95" fill="#20201e"/><circle cx="502.15" cy="782.62" r="5.95" fill="#20201e"/><circle cx="522.36" cy="771.57" r="5.95" fill="#20201e"/><circle cx="437.92" cy="920.33" r="5.95" fill="#20201e"/><circle cx="508.35" cy="907.02" r="5.95" fill="#20201e"/><circle cx="531.95" cy="898.55" r="5.95" fill="#20201e"/><circle cx="555.56" cy="888.13" r="5.95" fill="#20201e"/><circle cx="579.16" cy="875.33" r="5.95" fill="#20201e"/><circle cx="601.42" cy="860.03" r="5.95" fill="#20201e"/><circle cx="601.42" cy="860.03" r="5.95" fill="#20201e"/><circle cx="617.29" cy="844.81" r="5.95" fill="#20201e"/><circle cx="461.33" cy="918.93" r="5.95" fill="#20201e"/><circle cx="484.75" cy="914.37" r="5.95" fill="#20201e"/><circle cx="407.02" cy="843.55" r="5.95" fill="#20201e"/><circle cx="477.46" cy="830.24" r="5.95" fill="#20201e"/><circle cx="501.06" cy="821.77" r="5.95" fill="#20201e"/><circle cx="524.66" cy="811.35" r="5.95" fill="#20201e"/><circle cx="548.27" cy="798.55" r="5.95" fill="#20201e"/><circle cx="570.53" cy="783.25" r="5.95" fill="#20201e"/><circle cx="570.53" cy="783.25" r="5.95" fill="#20201e"/><circle cx="586.4" cy="768.03" r="5.95" fill="#20201e"/><circle cx="430.44" cy="842.15" r="5.95" fill="#20201e"/><circle cx="453.85" cy="837.59" r="5.95" fill="#20201e"/><circle cx="461.27" cy="880.65" r="5.95" fill="#20201e"/><circle cx="461.27" cy="880.65" r="5.95" fill="#20201e"/><circle cx="484.75" cy="874.2" r="5.95" fill="#20201e"/><circle cx="484.75" cy="874.2" r="5.95" fill="#20201e"/><circle cx="531.69" cy="856.56" r="5.95" fill="#20201e"/><circle cx="531.69" cy="856.56" r="5.95" fill="#20201e"/><circle cx="555.16" cy="845.27" r="5.95" fill="#20201e"/><circle cx="578.63" cy="831.85" r="5.95" fill="#20201e"/><circle cx="578.63" cy="831.85" r="5.95" fill="#20201e"/><circle cx="599.17" cy="817.58" r="5.95" fill="#20201e"/><circle cx="599.17" cy="817.58" r="5.95" fill="#20201e"/><circle cx="599.17" cy="817.58" r="5.95" fill="#20201e"/><circle cx="613.33" cy="801.46" r="5.95" fill="#20201e"/><circle cx="508.22" cy="866.23" r="5.95" fill="#20201e"/><circle cx="418.53" cy="803.16" r="5.95" fill="#20201e"/><circle cx="399.03" cy="795.83" r="5.95" fill="#20201e"/><circle cx="543.25" cy="753.71" r="5.95" fill="#20201e"/><circle cx="556.07" cy="736.49" r="5.95" fill="#20201e"/><circle cx="435.24" cy="744.45" r="5.95" fill="#20201e"/><circle cx="457.9" cy="752" r="5.95" fill="#20201e"/><circle cx="483.82" cy="741.44" r="5.95" fill="#20201e"/><circle cx="494.2" cy="720.18" r="5.95" fill="#20201e"/></svg>