<?xml version="1.0" encoding="UTF-8"?><svg id="Layer_1" xmlns="http://www.w3.org/2000/svg" xmlns:xlink="http://www.w3.org/1999/xlink" viewBox="0 0 1080 1080"><defs><radialGradient id="radial-gradient" cx="407.11" cy="573.73" fx="407.11" fy="573.73" r="132.2" gradientUnits="userSpaceOnUse"><stop offset="0" stop-color="#fff"/><stop offset="1" stop-color="#f3f3f3" stop-opacity="0"/></radialGradient><radialGradient id="radial-gradient-2" cx="662.22" cy="591.8" fx="662.22" fy="591.8" r="135.23" xlink:href="#radial-gradient"/><radialGradient id="radial-gradient-3" cx="551.68" cy="376.77" fx="551.68" fy="376.77" r="125.97" xlink:href="#radial-gradient"/></defs><path d="M316.43,250.11c22.22,0,43.1,8.67,58.79,24.41,15.65,15.7,24.25,36.56,24.21,58.73-.04,22.17-8.71,43-24.41,58.65-15.67,15.61-36.47,24.21-58.59,24.21s-43.11-8.67-58.79-24.41c-15.65-15.7-24.25-36.56-24.21-58.73.04-22.17,8.71-43,24.41-58.65,15.66-15.61,36.47-24.21,58.59-24.21h0M316.43,230.11c-26.3,0-52.6,10.01-72.7,30.04-40.29,40.15-40.41,105.37-.25,145.66,20.12,20.19,46.54,30.3,72.96,30.3s52.6-10.01,72.7-30.04c40.29-40.15,40.41-105.37.25-145.66-20.12-20.19-46.54-30.3-72.96-30.3h0Z" fill="#00e6d9"/><path d="M816.41,311.07c37.52,0,70.47,25.37,80.14,61.68,11.77,44.23-14.64,89.78-58.87,101.55-7.02,1.87-14.23,2.82-21.41,2.82-37.52,0-70.48-25.37-80.14-61.68-11.77-44.23,14.64-89.78,58.87-101.55,7.02-1.87,14.22-2.82,21.41-2.82h0M816.41,291.07c-8.77,0-17.68,1.13-26.55,3.49-54.97,14.63-87.68,71.05-73.05,126.02,12.27,46.1,53.92,76.54,99.47,76.54,8.77,0,17.68-1.13,26.55-3.49,54.97-14.63,87.68-71.05,73.05-126.02-12.27-46.1-53.92-76.54-99.47-76.54h0Z" fill="#fc3692"/><path d="M513.53,713.51c7.27,0,14.57.97,21.68,2.89,44.19,11.92,70.43,57.57,58.51,101.76-9.76,36.15-42.68,61.4-80.07,61.4-7.28,0-14.57-.97-21.68-2.89-44.19-11.92-70.43-57.57-58.51-101.76,9.75-36.15,42.68-61.4,80.07-61.4h0M513.53,693.51c-45.41,0-86.99,30.26-99.38,76.19-14.82,54.92,17.69,111.46,72.61,126.28,8.99,2.42,18.01,3.58,26.9,3.58,45.41,0,86.99-30.26,99.38-76.19,14.82-54.92-17.69-111.46-72.61-126.28-8.99-2.42-18.01-3.58-26.9-3.58h0Z" fill="#004cff"/><path d="M489.12,739.01c-2.77,1.18-5.65.77-6.72-.88-.08-.13-.15-.26-.21-.4l-17.12-32.04-144.06-269.68c24-1.05,47.71-10.47,66.39-28.24l94.39,290.79,11.2,34.5s.02.03.02.05l.13.41c.47,1.92-1.23,4.29-4.02,5.48Z" fill="url(#radial-gradient)" stroke="#20201e"/><path d="M778.76,444.05c-2.41-1.81-5.3-2.11-6.74-.76-.11.11-.21.22-.3.34l-24.32,26.99-204.64,227.16c23.05,6.79,43.79,21.63,57.65,43.37l161.51-259.59,19.16-30.8s.02-.03.04-.05l.23-.37c.92-1.75-.16-4.46-2.59-6.29Z" fill="url(#radial-gradient-2)" stroke="#20201e"/><path d="M378.48,340.7c.36-2.99,2.16-5.28,4.12-5.38.16,0,.3,0,.45.01l36.3,1.19,305.58,10.08c-11.09,21.31-14.79,46.55-8.74,71.61l-299.03-63.65-35.48-7.55s-.04,0-.06,0l-.42-.09c-1.9-.55-3.1-3.21-2.74-6.23Z" fill="url(#radial-gradient-3)" stroke="#20201e"/></svg>