<?xml version="1.0" encoding="UTF-8"?><svg id="Layer_1" xmlns="http://www.w3.org/2000/svg" xmlns:xlink="http://www.w3.org/1999/xlink" viewBox="0 0 1080 1080"><defs><radialGradient id="radial-gradient" cx="738.7" cy="302.28" fx="738.7" fy="302.28" r="434.84" gradientTransform="translate(41.99 162.24) rotate(-3.02)" gradientUnits="userSpaceOnUse"><stop offset="0" stop-color="#fff"/><stop offset="1" stop-color="#f3f3f3" stop-opacity="0"/></radialGradient><radialGradient id="radial-gradient-2" cx="296.51" cy="171.77" fx="296.51" fy="171.77" r="405.08" xlink:href="#radial-gradient"/><radialGradient id="radial-gradient-3" cx="413.2" cy="627.78" fx="413.2" fy="627.78" r="393.17" xlink:href="#radial-gradient"/></defs><circle cx="844.37" cy="352.68" r="118.98" fill="#fff" stroke="#20201e" stroke-width="5.78"/><path d="M804.05,412.6c-2.89-1.95-6.25-2.11-7.82-.47-.12.13-.23.26-.33.41l-26.41,32.61-222.27,274.48c27,6.43,51.83,22.29,69.14,46.53l170.54-309.27,20.23-36.69s.03-.03.04-.06l.24-.44c.95-2.08-.46-5.14-3.37-7.1Z" fill="url(#radial-gradient)" stroke="#20201e" stroke-width="1.16"/><circle cx="263.87" cy="312.71" r="118.98" fill="#fff" stroke="#20201e" stroke-width="5.78"/><path d="M276.57,404.87h0c-6.91,15.96-14.79,25.19-22.46,24.55-8.68-.72-15.52-13.95-19.61-34.87h0c8.43-19.82,15.19-49.5,17.99-82.97,2.86-34.25.99-65.25-4.29-86.22,7.63-20.91,16.8-33.47,25.71-32.73,8.07.68,14.54,12.14,18.7,30.55-10.1,19.3-18.44,52.54-21.65,90.75-3.08,36.91-.66,70.06,5.6,90.94Z" fill="#fff" stroke="#20201e" stroke-width="5.78"/><path d="M373.29,289.33c-.73-.37-1.49-.59-2.29-.66-7.63-.64-15.03,13.43-16.54,31.43-1.51,17.99,3.47,33.09,11.09,33.73.59.05,1.19,0,1.79-.11-7.45,30.19-20.52,50.67-33.65,49.57-5.09-.42-9.63-4.05-13.41-10.13,6.77-19.29,12.08-45.2,14.48-73.9,2.56-30.56,1.33-58.52-2.72-79.09,5.07-6.25,10.55-9.57,16.05-9.11,13.66,1.14,23.38,25.3,25.2,58.27Z" fill="#fff" stroke="#20201e" stroke-width="5.78"/><path d="M188.71,306.25c-2.58,30.81-1.31,58.99,2.82,79.6-4.33,4.36-8.9,6.6-13.47,6.22-13.51-1.13-23.16-24.77-25.13-57.18,1.1.85,2.28,1.36,3.55,1.47,7.63.64,15.03-13.43,16.54-31.42,1.51-17.99-3.46-33.1-11.09-33.73-1.26-.1-2.51.19-3.74.85,7.33-31.63,20.76-53.34,34.27-52.2,4.57.38,8.7,3.35,12.25,8.36-7.5,19.65-13.42,47.23-16,78.05Z" fill="#fff" stroke="#20201e" stroke-width="5.78"/><path d="M320.27,393.17c-7.72,21.97-17.32,35.37-26.71,34.58-7.02-.59-12.84-9.04-17-22.87h0c9.15-21.1,16.62-53.93,19.73-91.15,2.99-35.81,1.34-68.28-3.69-90.55,6.13-11.71,12.9-18.28,19.54-17.72,8.85.74,15.8,13.97,19.87,34.72-11.16,13.74-20.3,41.63-23.03,74.33-2.83,33.83,1.94,63.7,11.27,78.66Z" fill="#fff" stroke="#20201e" stroke-width="5.78"/><path d="M231.72,308.33c-2.81,33.54-1.54,64.16,2.78,86.21h0c-7.01,16.52-15.18,26.18-23.19,25.52-8.77-.73-15.68-13.74-19.78-34.21,12.31-12.41,22.67-42.03,25.61-77.22,2.95-35.21-2.34-66.15-12.44-80.43,7.44-19.49,16.41-31.18,25.19-30.44,7.79.65,14.11,10.97,18.3,27.6-7.64,20.93-13.74,50.25-16.48,82.97Z" fill="#fff" stroke="#20201e" stroke-width="5.78"/><path d="M382.09,322.42c-1.39,16.59-7.79,29.84-14.75,31.31,2.54-10.32,4.43-21.76,5.45-33.87.89-10.68,1.03-20.97.51-30.52,6.3,3.15,10.15,16.95,8.8,33.08Z" fill="#fff" stroke="#20201e" stroke-width="5.78"/><path d="M158.19,272.04c-2.24,9.61-3.9,20.15-4.82,31.24-.93,11.09-1.04,21.75-.44,31.61-5.54-4.25-8.79-17.26-7.54-32.27,1.25-15.03,6.62-27.31,12.8-30.58Z" fill="#fff" stroke="#20201e" stroke-width="5.78"/><path d="M336.01,317.69c.24-3.48,2.17-6.23,4.43-6.46.18-.02.35-.02.52-.01l41.95-.83,353.12-6.93c-11.5,25.26-14.23,54.6-5.73,83.14l-348.83-55.25-41.38-6.56s-.04,0-.07,0l-.49-.08c-2.22-.52-3.77-3.52-3.54-7.02Z" fill="url(#radial-gradient-2)" stroke="#20201e" stroke-width="1.16"/><circle cx="519.57" cy="835.32" r="118.98" fill="#fff" stroke="#20201e" stroke-width="5.78"/><circle cx="519.57" cy="835.32" r="118.98" fill="#fff" stroke="#20201e" stroke-width="5.78"/><circle cx="431.42" cy="893" r="5.95" fill="#20201e"/><circle cx="454.83" cy="891.2" r="5.95" fill="#20201e"/><circle cx="524.05" cy="948.3" r="5.95" fill="#20201e"/><circle cx="551.01" cy="940.34" r="5.95" fill="#20201e"/><circle cx="578.09" cy="928.22" r="5.95" fill="#20201e"/><circle cx="578.09" cy="928.22" r="5.95" fill="#20201e"/><circle cx="597.7" cy="916.12" r="5.95" fill="#20201e"/><circle cx="459.67" cy="805.78" r="5.95" fill="#20201e"/><circle cx="486.63" cy="797.82" r="5.95" fill="#20201e"/><circle cx="513.71" cy="785.7" r="5.95" fill="#20201e"/><circle cx="513.71" cy="785.7" r="5.95" fill="#20201e"/><circle cx="533.31" cy="773.6" r="5.95" fill="#20201e"/><circle cx="456.8" cy="926.59" r="5.95" fill="#20201e"/><circle cx="526.44" cy="909.6" r="5.95" fill="#20201e"/><circle cx="549.57" cy="899.89" r="5.95" fill="#20201e"/><circle cx="572.59" cy="888.25" r="5.95" fill="#20201e"/><circle cx="595.49" cy="874.23" r="5.95" fill="#20201e"/><circle cx="616.91" cy="857.78" r="5.95" fill="#20201e"/><circle cx="616.91" cy="857.78" r="5.95" fill="#20201e"/><circle cx="631.96" cy="841.74" r="5.95" fill="#20201e"/><circle cx="480.11" cy="923.96" r="5.95" fill="#20201e"/><circle cx="503.26" cy="918.18" r="5.95" fill="#20201e"/><circle cx="421.92" cy="851.54" r="5.95" fill="#20201e"/><circle cx="491.55" cy="834.55" r="5.95" fill="#20201e"/><circle cx="514.68" cy="824.84" r="5.95" fill="#20201e"/><circle cx="537.7" cy="813.2" r="5.95" fill="#20201e"/><circle cx="560.6" cy="799.18" r="5.95" fill="#20201e"/><circle cx="582.02" cy="782.73" r="5.95" fill="#20201e"/><circle cx="582.02" cy="782.73" r="5.95" fill="#20201e"/><circle cx="597.07" cy="766.69" r="5.95" fill="#20201e"/><circle cx="445.23" cy="848.91" r="5.95" fill="#20201e"/><circle cx="468.37" cy="843.13" r="5.95" fill="#20201e"/><circle cx="478.04" cy="885.74" r="5.95" fill="#20201e"/><circle cx="478.04" cy="885.74" r="5.95" fill="#20201e"/><circle cx="501.14" cy="878.06" r="5.95" fill="#20201e"/><circle cx="501.14" cy="878.06" r="5.95" fill="#20201e"/><circle cx="547.09" cy="857.98" r="5.95" fill="#20201e"/><circle cx="547.09" cy="857.98" r="5.95" fill="#20201e"/><circle cx="569.94" cy="845.47" r="5.95" fill="#20201e"/><circle cx="592.67" cy="830.83" r="5.95" fill="#20201e"/><circle cx="592.67" cy="830.83" r="5.95" fill="#20201e"/><circle cx="612.43" cy="815.5" r="5.95" fill="#20201e"/><circle cx="612.43" cy="815.5" r="5.95" fill="#20201e"/><circle cx="612.43" cy="815.5" r="5.95" fill="#20201e"/><circle cx="625.72" cy="798.66" r="5.95" fill="#20201e"/><circle cx="524.16" cy="868.87" r="5.95" fill="#20201e"/><circle cx="431.28" cy="810.6" r="5.95" fill="#20201e"/><circle cx="411.43" cy="804.31" r="5.95" fill="#20201e"/><circle cx="553.23" cy="754.66" r="5.95" fill="#20201e"/><circle cx="565.13" cy="736.79" r="5.95" fill="#20201e"/><circle cx="444.88" cy="751.1" r="5.95" fill="#20201e"/><circle cx="467.91" cy="757.44" r="5.95" fill="#20201e"/><circle cx="493.23" cy="745.54" r="5.95" fill="#20201e"/><circle cx="502.49" cy="723.76" r="5.95" fill="#20201e"/><path d="M487.84,770.45c-3.13,1.53-6.48,1.23-7.81-.61-.11-.15-.19-.29-.27-.45l-21.69-35.92-182.57-302.35c27.63-2.67,54.4-14.98,74.87-36.61l126.56,329.72,15.01,39.12s.02.04.03.06l.18.46c.66,2.19-1.16,5.03-4.31,6.57Z" fill="url(#radial-gradient-3)" stroke="#20201e" stroke-width="1.16"/></svg>