<?xml version="1.0" encoding="UTF-8"?><svg id="Layer_1" xmlns="http://www.w3.org/2000/svg" xmlns:xlink="http://www.w3.org/1999/xlink" viewBox="0 0 1080 1080"><defs><radialGradient id="radial-gradient" cx="489.08" cy="736.38" fx="489.08" fy="736.38" r="340.35" gradientUnits="userSpaceOnUse"><stop offset="0" stop-color="#fff"/><stop offset="1" stop-color="#f3f3f3" stop-opacity="0"/></radialGradient><radialGradient id="radial-gradient-2" cx="770.86" cy="454.6" fx="770.86" fy="454.6" r="376.42" xlink:href="#radial-gradient"/><radialGradient id="radial-gradient-3" cx="388.07" cy="341.62" fx="388.07" fy="341.62" r="350.66" xlink:href="#radial-gradient"/></defs><circle cx="316.43" cy="333.11" r="103" fill="#00e6d9"/><circle cx="816.34" cy="394.1" r="103" fill="#fc3692"/><circle cx="513.59" cy="796.53" r="103" fill="#004cff"/><path d="M489.12,739.01c-2.77,1.18-5.65.77-6.72-.88-.08-.13-.15-.26-.21-.4l-17.12-32.04-144.06-269.68c24-1.05,47.71-10.47,66.39-28.24l94.39,290.79,11.2,34.5s.02.03.02.05l.13.41c.47,1.92-1.23,4.29-4.02,5.48Z" fill="url(#radial-gradient)" stroke="#20201e"/><path d="M778.76,444.05c-2.41-1.81-5.3-2.11-6.74-.76-.11.11-.21.22-.3.34l-24.32,26.99-204.64,227.16c23.05,6.79,43.79,21.63,57.65,43.37l161.51-259.59,19.16-30.8s.02-.03.04-.05l.23-.37c.92-1.75-.16-4.46-2.59-6.29Z" fill="url(#radial-gradient-2)" stroke="#20201e"/><path d="M378.48,340.7c.36-2.99,2.16-5.28,4.12-5.38.16,0,.3,0,.45.01l36.3,1.19,305.58,10.08c-11.09,21.31-14.79,46.55-8.74,71.61l-299.03-63.65-35.48-7.55s-.04,0-.06,0l-.42-.09c-1.9-.55-3.1-3.21-2.74-6.23Z" fill="url(#radial-gradient-3)" stroke="#20201e"/></svg>