<svg width="5313" height="1102" viewBox="0 0 5313 1102" fill="none" xmlns="http://www.w3.org/2000/svg">
<rect width="5313" height="1102" fill="#20201E"/>
<g filter="url(#filter0_d_608_18596)">
<path d="M457 287L600.5 396L243.5 815.5L457 287Z" fill="#F3F3F3"/>
<path d="M334.479 832.762L323.5 662.5L916.5 755.5L334.479 832.762Z" fill="#F3F3F3"/>
<path d="M894.155 658.751L745 755L498.456 225L894.155 658.751Z" fill="#F3F3F3"/>
<circle cx="290.5" cy="741.5" r="103" fill="#F3F3F3" stroke="#20201E" stroke-width="5"/>
<circle cx="550.5" cy="315.5" r="103" fill="#F3F3F3" stroke="#20201E" stroke-width="5"/>
<circle cx="836.5" cy="741.5" r="103" fill="#F3F3F3" stroke="#20201E" stroke-width="5"/>
</g>
<path d="M1329.26 819.812V799.844H1288.22V758.797H1248.28V718.859H1208.34V678.922H1168.4V276.219H1248.28V638.984H1288.22V678.922H1329.26V718.859H1409.14V678.922H1450.18V638.984H1490.12V276.219H1570V678.922H1530.06V718.859H1490.12V758.797H1450.18V799.844H1409.14V839.781H1329.26V819.812ZM1787.88 799.844V758.797H1868.86V357.203H1787.88V276.219H2029.72V357.203H1948.74V758.797H2029.72V839.781H1787.88V799.844ZM2247.6 758.797V678.922H2287.54V638.984H2327.48V597.938H2367.42V558H2408.46V518.062H2448.4V477.016H2488.34V437.078H2529.38V397.141H2569.32V357.203H2247.6V276.219H2649.2V437.078H2609.26V477.016H2569.32V518.062H2529.38V558H2488.34V597.938H2448.4V638.984H2408.46V678.922H2367.42V718.859H2327.48V758.797H2649.2V839.781H2247.6V758.797ZM2787.2 558V276.219H2867.08V316.156H2907.02V357.203H2948.06V397.141H3027.94V357.203H3068.98V316.156H3108.92V276.219H3188.8V839.781H3108.92V437.078H3068.98V477.016H3027.94V558H2948.06V477.016H2907.02V437.078H2867.08V839.781H2787.2V558ZM3487.66 276.219H3567.54V316.156H3608.58V357.203H3648.52V397.141H3688.46V437.078H3728.4V839.781H3648.52V678.922H3406.68V839.781H3326.8V437.078H3366.74V397.141H3406.68V357.203H3446.62V316.156H3487.66V276.219ZM3487.66 397.141V437.078H3446.62V477.016H3406.68V597.938H3648.52V477.016H3608.58V437.078H3567.54V397.141H3487.66ZM4027.26 738.828V638.984H3986.22V597.938H3946.28V558H3906.34V518.062H3866.4V276.219H3946.28V477.016H3986.22V518.062H4027.26V558H4107.14V518.062H4148.18V477.016H4188.12V276.219H4268V518.062H4228.06V558H4188.12V597.938H4148.18V638.984H4107.14V839.781H4027.26V738.828ZM4566.86 276.219H4646.74V316.156H4687.78V357.203H4727.72V397.141H4767.66V437.078H4807.6V839.781H4727.72V678.922H4485.88V839.781H4406V437.078H4445.94V397.141H4485.88V357.203H4525.82V316.156H4566.86V276.219ZM4566.86 397.141V437.078H4525.82V477.016H4485.88V597.938H4727.72V477.016H4687.78V437.078H4646.74V397.141H4566.86Z" fill="white"/>
<defs>
<filter id="filter0_d_608_18596" x="181" y="210" width="765" height="645" filterUnits="userSpaceOnUse" color-interpolation-filters="sRGB">
<feFlood flood-opacity="0" result="BackgroundImageFix"/>
<feColorMatrix in="SourceAlpha" type="matrix" values="0 0 0 0 0 0 0 0 0 0 0 0 0 0 0 0 0 0 127 0" result="hardAlpha"/>
<feOffset dy="4"/>
<feGaussianBlur stdDeviation="2"/>
<feComposite in2="hardAlpha" operator="out"/>
<feColorMatrix type="matrix" values="0 0 0 0 0 0 0 0 0 0 0 0 0 0 0 0 0 0 0.25 0"/>
<feBlend mode="normal" in2="BackgroundImageFix" result="effect1_dropShadow_608_18596"/>
<feBlend mode="normal" in="SourceGraphic" in2="effect1_dropShadow_608_18596" result="shape"/>
</filter>
</defs>
</svg>
